<?xml version="1.0" encoding="iso-8859-1"?>
<!-- Generator: Adobe Illustrator 19.0.0, SVG Export Plug-In . SVG Version: 6.00 Build 0)  -->
<svg version="1.1" id="Layer_1" xmlns="http://www.w3.org/2000/svg" xmlns:xlink="http://www.w3.org/1999/xlink" x="0px" y="0px"
	 viewBox="0 0 512 512" style="enable-background:new 0 0 512 512;" xml:space="preserve">
<g>
	<path style="fill:#59461C;" d="M0,450.207h512V61.793H0V450.207z"/>
	<path style="fill:#FFFFFF;" d="M441.379,414.897c0-19.5,15.81-35.31,35.31-35.31V132.414c-19.5,0-35.31-15.81-35.31-35.31H70.621
		c0,19.5-15.81,35.31-35.31,35.31v247.172c19.5,0,35.31,15.81,35.31,35.31H441.379z"/>
	<g>
		<path style="fill:#AAA79B;" d="M194.207,335.448h-79.448c-4.882,0-8.828-3.955-8.828-8.828s3.946-8.828,8.828-8.828h79.448
			c4.882,0,8.828,3.955,8.828,8.828S199.089,335.448,194.207,335.448"/>
		<path style="fill:#AAA79B;" d="M167.724,379.586h-52.966c-4.882,0-8.828-3.955-8.828-8.828c0-4.873,3.946-8.828,8.828-8.828
			h52.966c4.882,0,8.828,3.955,8.828,8.828C176.552,375.631,172.606,379.586,167.724,379.586"/>
		<path style="fill:#AAA79B;" d="M397.241,379.586h-79.448c-4.882,0-8.828-3.955-8.828-8.828c0-4.873,3.946-8.828,8.828-8.828
			h79.448c4.882,0,8.828,3.955,8.828,8.828C406.069,375.631,402.123,379.586,397.241,379.586"/>
		<path style="fill:#AAA79B;" d="M397.241,353.103c-2.26,0-4.52-0.865-6.241-2.586l-13.753-13.753
			c-8.748,2.127-21.751,1.818-33.863-7.768l-20.692,13.798c-4.078,2.701-9.543,1.607-12.244-2.445
			c-2.71-4.061-1.615-9.543,2.445-12.244l26.483-17.655c3.593-2.401,8.422-1.836,11.379,1.351
			c12.147,13.162,24.708,7.009,24.841,6.947c3.399-1.713,7.512-1.077,10.231,1.633l17.655,17.655c3.452,3.452,3.452,9.031,0,12.482
			C401.761,352.238,399.501,353.103,397.241,353.103"/>
	</g>
	<path style="fill:#F8D832;" d="M255.546,132.414l20.259,44.367l49.911-5.429l-29.661,40.51l29.661,40.51l-49.911-5.429
		l-20.259,44.367l-20.259-44.367l-49.911,5.429l29.661-40.51l-29.661-40.51l49.911,5.429L255.546,132.414z"/>
</g>
<g>
</g>
<g>
</g>
<g>
</g>
<g>
</g>
<g>
</g>
<g>
</g>
<g>
</g>
<g>
</g>
<g>
</g>
<g>
</g>
<g>
</g>
<g>
</g>
<g>
</g>
<g>
</g>
<g>
</g>
</svg>
