<?xml version="1.0" encoding="iso-8859-1"?>
<!-- Generator: Adobe Illustrator 16.0.0, SVG Export Plug-In . SVG Version: 6.00 Build 0)  -->
<!DOCTYPE svg PUBLIC "-//W3C//DTD SVG 1.1//EN" "http://www.w3.org/Graphics/SVG/1.1/DTD/svg11.dtd">
<svg version="1.1" id="Capa_1" xmlns="http://www.w3.org/2000/svg" xmlns:xlink="http://www.w3.org/1999/xlink" x="0px" y="0px"
	 width="41.789px" height="41.789px" viewBox="0 0 41.789 41.789" style="enable-background:new 0 0 41.789 41.789;"
	 xml:space="preserve">
<g>
	<path d="M25.442,12.462v12.194c0,1.002-0.813,1.814-1.813,1.814c-0.213,0-0.414-0.045-0.604-0.111V39.37
		c0,1.336-1.083,2.419-2.419,2.419c-0.842,0-1.583-0.432-2.016-1.085c-0.434,0.653-1.173,1.085-2.017,1.085
		c-1.336,0-2.419-1.083-2.419-2.419V25.956c-0.189,0.067-0.391,0.11-0.604,0.11c-1.002,0-1.814-0.812-1.814-1.812V12.462
		c0-1.001,0.813-1.813,1.814-1.813h3.91l0.685,0.911l-1.255,7.111l1.7,1.603l1.7-1.603l-1.256-7.111l0.686-0.911h3.91
		c0.479,0,0.94,0.191,1.281,0.531C25.254,11.52,25.442,11.982,25.442,12.462z M18.589,9.415c2.278,0,4.125-2.835,4.125-5.436
		C22.715,1.377,20.868,0,18.589,0c-2.279,0-4.126,1.378-4.126,3.979S16.311,9.415,18.589,9.415z M28.504,30.907v-1.813h-2.32v1.813
		h-1.548V41.59h5.417V30.907H28.504z"/>
</g>
<g>
</g>
<g>
</g>
<g>
</g>
<g>
</g>
<g>
</g>
<g>
</g>
<g>
</g>
<g>
</g>
<g>
</g>
<g>
</g>
<g>
</g>
<g>
</g>
<g>
</g>
<g>
</g>
<g>
</g>
</svg>
